<svg width="3832" height="2525" xmlns="http://www.w3.org/2000/svg" xmlns:xlink="http://www.w3.org/1999/xlink" xml:space="preserve" overflow="hidden"><g transform="translate(-586 -252)"><g><rect x="588" y="591" width="729" height="385" fill="#1B90FF" fill-opacity="1"/><text fill="#FFFFFF" fill-opacity="1" font-family="Arial,Arial_MSFontService,sans-serif" font-style="normal" font-variant="normal" font-weight="400" font-stretch="normal" font-size="73" text-anchor="start" direction="ltr" writing-mode="lr-tb" unicode-bidi="normal" text-decoration="none" transform="matrix(1 0 0 1 697.935 756)">Communication </text><text fill="#FFFFFF" fill-opacity="1" font-family="Arial,Arial_MSFontService,sans-serif" font-style="normal" font-variant="normal" font-weight="400" font-stretch="normal" font-size="73" text-anchor="start" direction="ltr" writing-mode="lr-tb" unicode-bidi="normal" text-decoration="none" transform="matrix(1 0 0 1 807.935 844)">Scenario</text><rect x="1195" y="1198" width="729" height="385" fill="#89D1FF" fill-opacity="1"/><text fill="#000000" fill-opacity="1" font-family="Arial,Arial_MSFontService,sans-serif" font-style="normal" font-variant="normal" font-weight="400" font-stretch="normal" font-size="73" text-anchor="start" direction="ltr" writing-mode="lr-tb" unicode-bidi="normal" text-decoration="none" transform="matrix(1 0 0 1 1331.8 1407)">HTTP Service</text><rect x="2026" y="1198" width="729" height="385" fill="#89D1FF" fill-opacity="1"/><text fill="#000000" fill-opacity="1" font-family="Arial,Arial_MSFontService,sans-serif" font-style="normal" font-variant="normal" font-weight="400" font-stretch="normal" font-size="73" text-anchor="start" direction="ltr" writing-mode="lr-tb" unicode-bidi="normal" text-decoration="none" transform="matrix(1 0 0 1 2152.5 1407)">OData Service</text><rect x="2858" y="1198" width="729" height="385" fill="#89D1FF" fill-opacity="1"/><text fill="#000000" fill-opacity="1" font-family="Arial,Arial_MSFontService,sans-serif" font-style="normal" font-variant="normal" font-weight="400" font-stretch="normal" font-size="73" text-anchor="start" direction="ltr" writing-mode="lr-tb" unicode-bidi="normal" text-decoration="none" transform="matrix(1 0 0 1 3016.46 1407)">SQL Service</text><rect x="3689" y="1198" width="729" height="385" fill="#89D1FF" fill-opacity="1"/><text fill="#000000" fill-opacity="1" font-family="Arial,Arial_MSFontService,sans-serif" font-style="normal" font-variant="normal" font-weight="400" font-stretch="normal" font-size="73" text-anchor="start" direction="ltr" writing-mode="lr-tb" unicode-bidi="normal" text-decoration="none" transform="matrix(1 0 0 1 3827.71 1363)">RFC </text><text fill="#000000" fill-opacity="1" font-family="Arial,Arial_MSFontService,sans-serif" font-style="normal" font-variant="normal" font-weight="400" font-stretch="normal" font-size="73" text-anchor="start" direction="ltr" writing-mode="lr-tb" unicode-bidi="normal" text-decoration="none" transform="matrix(1 0 0 1 3998.44 1363)">Function</text><text fill="#000000" fill-opacity="1" font-family="Arial,Arial_MSFontService,sans-serif" font-style="normal" font-variant="normal" font-weight="400" font-stretch="normal" font-size="73" text-anchor="start" direction="ltr" writing-mode="lr-tb" unicode-bidi="normal" text-decoration="none" transform="matrix(1 0 0 1 3933.43 1451)">Module</text><rect x="1195" y="1782" width="729" height="385" fill="#89D1FF" fill-opacity="1"/><text fill="#000000" fill-opacity="1" font-family="Arial,Arial_MSFontService,sans-serif" font-style="normal" font-variant="normal" font-weight="400" font-stretch="normal" font-size="73" text-anchor="start" direction="ltr" writing-mode="lr-tb" unicode-bidi="normal" text-decoration="none" transform="matrix(1 0 0 1 1443.53 1903)">Default </text><text fill="#000000" fill-opacity="1" font-family="Arial,Arial_MSFontService,sans-serif" font-style="normal" font-variant="normal" font-weight="400" font-stretch="normal" font-size="73" text-anchor="start" direction="ltr" writing-mode="lr-tb" unicode-bidi="normal" text-decoration="none" transform="matrix(1 0 0 1 1345.83 1991)">Authorization</text><text fill="#000000" fill-opacity="1" font-family="Arial,Arial_MSFontService,sans-serif" font-style="normal" font-variant="normal" font-weight="400" font-stretch="normal" font-size="73" text-anchor="start" direction="ltr" writing-mode="lr-tb" unicode-bidi="normal" text-decoration="none" transform="matrix(1 0 0 1 1447.81 2079)">Values</text><rect x="588" y="2389" width="729" height="385" fill="#89D1FF" fill-opacity="1"/><text fill="#000000" fill-opacity="1" font-family="Arial,Arial_MSFontService,sans-serif" font-style="normal" font-variant="normal" font-weight="400" font-stretch="normal" font-size="73" text-anchor="start" direction="ltr" writing-mode="lr-tb" unicode-bidi="normal" text-decoration="none" transform="matrix(1 0 0 1 738.612 2554)">Authorization</text><text fill="#000000" fill-opacity="1" font-family="Arial,Arial_MSFontService,sans-serif" font-style="normal" font-variant="normal" font-weight="400" font-stretch="normal" font-size="73" text-anchor="start" direction="ltr" writing-mode="lr-tb" unicode-bidi="normal" text-decoration="none" transform="matrix(1 0 0 1 846.32 2642)">Object</text><path d="M4.58333-1.17089e-06 4.58334 36.6667-4.58332 36.6667-4.58333 1.17089e-06ZM4.58335 64.1667 4.58336 100.833-4.58331 100.833-4.58332 64.1667ZM4.58337 128.333 4.58338 165-4.58329 165-4.5833 128.333ZM4.58338 192.5 4.58339 229.167-4.58327 229.167-4.58328 192.5ZM4.5834 256.667 4.58341 293.333-4.58326 293.333-4.58327 256.667ZM4.58342 320.833 4.58342 357.5-4.58324 357.5-4.58325 320.833ZM4.58343 385 4.58344 421.667-4.58323 421.667-4.58323 385ZM4.58345 449.167 4.58346 485.833-4.58321 485.833-4.58322 449.167ZM4.58346 513.333 4.58347 550-4.58319 550-4.5832 513.333ZM4.58348 577.5 4.58349 614.167-4.58318 614.167-4.58319 577.5ZM4.5835 641.667 4.58351 678.333-4.58316 678.333-4.58317 641.667ZM4.58351 705.833 4.58352 742.5-4.58314 742.5-4.58315 705.833ZM4.58353 770 4.58354 806.667-4.58313 806.667-4.58314 770ZM4.58355 834.167 4.58356 870.833-4.58311 870.833-4.58312 834.167ZM4.58356 898.333 4.58357 935-4.58309 935-4.5831 898.333ZM4.58358 962.5 4.58359 999.167-4.58308 999.167-4.58309 962.5ZM4.5836 1026.67 4.5836 1063.33-4.58306 1063.33-4.58307 1026.67ZM4.58361 1090.83 4.58362 1127.5-4.58305 1127.5-4.58305 1090.83ZM4.58363 1155 4.58364 1191.67-4.58303 1191.67-4.58304 1155ZM4.58364 1219.17 4.58365 1255.83-4.58301 1255.83-4.58302 1219.17ZM4.58366 1283.33 4.58367 1320-4.583 1320-4.58301 1283.33ZM4.58368 1347.5 4.58369 1384.17-4.58298 1384.17-4.58299 1347.5ZM13.7504 1385.18 0.000360892 1412.68-13.7496 1385.18Z" fill="#000000" fill-rule="nonzero" fill-opacity="1" transform="matrix(-1 0 0 1 952.5 976.5)"/><path d="M0-4.58333 115.536-4.58333 115.536 607.223 110.952 602.64 198.987 602.64 198.987 611.806 106.369 611.806 106.369 0 110.952 4.58333 0 4.58333ZM194.404 593.473 221.904 607.223 194.404 620.973Z" fill="#000000" fill-rule="nonzero" fill-opacity="1" transform="matrix(1.83697e-16 1 1 -1.83697e-16 952.5 976.5)"/><path d="M1560.5 1082.92 2396.39 1082.92 2396.39 1175.54 2387.22 1175.54 2387.22 1087.5 2391.8 1092.08 1560.5 1092.08ZM2405.55 1170.95 2391.8 1198.45 2378.05 1170.95Z" fill="#000000" fill-rule="nonzero" fill-opacity="1"/><path d="M2391.5 1082.92 3227.39 1082.92 3227.39 1175.54 3218.22 1175.54 3218.22 1087.5 3222.8 1092.08 2391.5 1092.08ZM3236.55 1170.95 3222.8 1198.45 3209.05 1170.95Z" fill="#000000" fill-rule="nonzero" fill-opacity="1"/><path d="M3222.5 1082.92 4058.39 1082.92 4058.39 1175.54 4049.22 1175.54 4049.22 1087.5 4053.8 1092.08 3222.5 1092.08ZM4067.55 1170.95 4053.8 1198.45 4040.05 1170.95Z" fill="#000000" fill-rule="nonzero" fill-opacity="1"/><path d="M4.58333-8.31477e-06 4.58365 176.017-4.58301 176.017-4.58333 8.31477e-06ZM13.7503 171.434 0.000360892 198.934-13.7497 171.434Z" fill="#000000" fill-rule="nonzero" fill-opacity="1" transform="matrix(-1 0 0 1 1560.5 1583.5)"/><path d="M1564.31 2167.5 1564.31 2283.04 952.5 2283.04 957.083 2278.45 957.083 2366.49 947.917 2366.49 947.917 2273.87 1559.72 2273.87 1555.14 2278.45 1555.14 2167.5ZM966.25 2361.9 952.5 2389.4 938.75 2361.9Z" fill="#000000" fill-rule="nonzero" fill-opacity="1"/><text fill="#000000" fill-opacity="1" font-family="Arial,Arial_MSFontService,sans-serif" font-style="normal" font-variant="normal" font-weight="400" font-stretch="normal" font-size="83" text-anchor="start" direction="ltr" writing-mode="lr-tb" unicode-bidi="normal" text-decoration="none" transform="matrix(1 0 0 1 691.252 362)">ABAP System</text></g></g></svg>