<svg width="4684" height="2159" xmlns="http://www.w3.org/2000/svg" xmlns:xlink="http://www.w3.org/1999/xlink" xml:space="preserve" overflow="hidden"><g transform="translate(-160 -178)"><g><rect x="164" y="530" width="682" height="323" fill="#1B90FF" fill-opacity="1"/><text fill="#FFFFFF" fill-opacity="1" font-family="Arial,Arial_MSFontService,sans-serif" font-style="normal" font-variant="normal" font-weight="400" font-stretch="normal" font-size="64" text-anchor="start" direction="ltr" writing-mode="lr-tb" unicode-bidi="normal" text-decoration="none" transform="matrix(1 0 0 1 282.688 666)">Communication </text><text fill="#FFFFFF" fill-opacity="1" font-family="Arial,Arial_MSFontService,sans-serif" font-style="normal" font-variant="normal" font-weight="400" font-stretch="normal" font-size="64" text-anchor="start" direction="ltr" writing-mode="lr-tb" unicode-bidi="normal" text-decoration="none" transform="matrix(1 0 0 1 378.641 743)">Scenario</text><rect x="164" y="1270" width="682" height="323" fill="#89D1FF" fill-opacity="1"/><text fill="#000000" fill-opacity="1" font-family="Arial,Arial_MSFontService,sans-serif" font-style="normal" font-variant="normal" font-weight="400" font-stretch="normal" font-size="64" text-anchor="start" direction="ltr" writing-mode="lr-tb" unicode-bidi="normal" text-decoration="none" transform="matrix(1 0 0 1 248.887 1406)">Outbound Service </text><text fill="#000000" fill-opacity="1" font-family="Arial,Arial_MSFontService,sans-serif" font-style="normal" font-variant="normal" font-weight="400" font-stretch="normal" font-size="64" text-anchor="start" direction="ltr" writing-mode="lr-tb" unicode-bidi="normal" text-decoration="none" transform="matrix(1 0 0 1 394.407 1483)">(SOAP)</text><rect x="164" y="2010" width="682" height="323" fill="#89D1FF" fill-opacity="1"/><text fill="#000000" fill-opacity="1" font-family="Arial,Arial_MSFontService,sans-serif" font-style="normal" font-variant="normal" font-weight="400" font-stretch="normal" font-size="64" text-anchor="start" direction="ltr" writing-mode="lr-tb" unicode-bidi="normal" text-decoration="none" transform="matrix(1 0 0 1 398.131 2108)">Service </text><text fill="#000000" fill-opacity="1" font-family="Arial,Arial_MSFontService,sans-serif" font-style="normal" font-variant="normal" font-weight="400" font-stretch="normal" font-size="64" text-anchor="start" direction="ltr" writing-mode="lr-tb" unicode-bidi="normal" text-decoration="none" transform="matrix(1 0 0 1 220.527 2185)">Consumption</text><text fill="#000000" fill-opacity="1" font-family="Arial,Arial_MSFontService,sans-serif" font-style="normal" font-variant="normal" font-weight="400" font-stretch="normal" font-size="64" text-anchor="start" direction="ltr" writing-mode="lr-tb" unicode-bidi="normal" text-decoration="none" transform="matrix(1 0 0 1 615.267 2185)">Model </text><text fill="#000000" fill-opacity="1" font-family="Arial,Arial_MSFontService,sans-serif" font-style="normal" font-variant="normal" font-weight="400" font-stretch="normal" font-size="64" text-anchor="start" direction="ltr" writing-mode="lr-tb" unicode-bidi="normal" text-decoration="none" transform="matrix(1 0 0 1 394.419 2262)">(SOAP)</text><rect x="1258" y="1270" width="682" height="323" fill="#89D1FF" fill-opacity="1"/><text fill="#000000" fill-opacity="1" font-family="Arial,Arial_MSFontService,sans-serif" font-style="normal" font-variant="normal" font-weight="400" font-stretch="normal" font-size="64" text-anchor="start" direction="ltr" writing-mode="lr-tb" unicode-bidi="normal" text-decoration="none" transform="matrix(1 0 0 1 1342.77 1406)">Outbound Service </text><text fill="#000000" fill-opacity="1" font-family="Arial,Arial_MSFontService,sans-serif" font-style="normal" font-variant="normal" font-weight="400" font-stretch="normal" font-size="64" text-anchor="start" direction="ltr" writing-mode="lr-tb" unicode-bidi="normal" text-decoration="none" transform="matrix(1 0 0 1 1494.02 1483)">(HTTP)</text><rect x="3193" y="1270" width="682" height="323" fill="#89D1FF" fill-opacity="1"/><text fill="#000000" fill-opacity="1" font-family="Arial,Arial_MSFontService,sans-serif" font-style="normal" font-variant="normal" font-weight="400" font-stretch="normal" font-size="64" text-anchor="start" direction="ltr" writing-mode="lr-tb" unicode-bidi="normal" text-decoration="none" transform="matrix(1 0 0 1 3277.93 1406)">Outbound Service </text><text fill="#000000" fill-opacity="1" font-family="Arial,Arial_MSFontService,sans-serif" font-style="normal" font-variant="normal" font-weight="400" font-stretch="normal" font-size="64" text-anchor="start" direction="ltr" writing-mode="lr-tb" unicode-bidi="normal" text-decoration="none" transform="matrix(1 0 0 1 3446.94 1483)">(RFC)</text><rect x="1262" y="2010" width="682" height="323" fill="#89D1FF" fill-opacity="1"/><text fill="#000000" fill-opacity="1" font-family="Arial,Arial_MSFontService,sans-serif" font-style="normal" font-variant="normal" font-weight="400" font-stretch="normal" font-size="64" text-anchor="start" direction="ltr" writing-mode="lr-tb" unicode-bidi="normal" text-decoration="none" transform="matrix(1 0 0 1 1496.04 2108)">Service </text><text fill="#000000" fill-opacity="1" font-family="Arial,Arial_MSFontService,sans-serif" font-style="normal" font-variant="normal" font-weight="400" font-stretch="normal" font-size="64" text-anchor="start" direction="ltr" writing-mode="lr-tb" unicode-bidi="normal" text-decoration="none" transform="matrix(1 0 0 1 1318.43 2185)">Consumption</text><text fill="#000000" fill-opacity="1" font-family="Arial,Arial_MSFontService,sans-serif" font-style="normal" font-variant="normal" font-weight="400" font-stretch="normal" font-size="64" text-anchor="start" direction="ltr" writing-mode="lr-tb" unicode-bidi="normal" text-decoration="none" transform="matrix(1 0 0 1 1713.17 2185)">Model </text><text fill="#000000" fill-opacity="1" font-family="Arial,Arial_MSFontService,sans-serif" font-style="normal" font-variant="normal" font-weight="400" font-stretch="normal" font-size="64" text-anchor="start" direction="ltr" writing-mode="lr-tb" unicode-bidi="normal" text-decoration="none" transform="matrix(1 0 0 1 1489.16 2262)">(OData)</text><rect x="3193" y="2010" width="682" height="323" fill="#89D1FF" fill-opacity="1"/><text fill="#000000" fill-opacity="1" font-family="Arial,Arial_MSFontService,sans-serif" font-style="normal" font-variant="normal" font-weight="400" font-stretch="normal" font-size="64" text-anchor="start" direction="ltr" writing-mode="lr-tb" unicode-bidi="normal" text-decoration="none" transform="matrix(1 0 0 1 3427.18 2108)">Service </text><text fill="#000000" fill-opacity="1" font-family="Arial,Arial_MSFontService,sans-serif" font-style="normal" font-variant="normal" font-weight="400" font-stretch="normal" font-size="64" text-anchor="start" direction="ltr" writing-mode="lr-tb" unicode-bidi="normal" text-decoration="none" transform="matrix(1 0 0 1 3249.57 2185)">Consumption</text><text fill="#000000" fill-opacity="1" font-family="Arial,Arial_MSFontService,sans-serif" font-style="normal" font-variant="normal" font-weight="400" font-stretch="normal" font-size="64" text-anchor="start" direction="ltr" writing-mode="lr-tb" unicode-bidi="normal" text-decoration="none" transform="matrix(1 0 0 1 3644.31 2185)">Model </text><text fill="#000000" fill-opacity="1" font-family="Arial,Arial_MSFontService,sans-serif" font-style="normal" font-variant="normal" font-weight="400" font-stretch="normal" font-size="64" text-anchor="start" direction="ltr" writing-mode="lr-tb" unicode-bidi="normal" text-decoration="none" transform="matrix(1 0 0 1 3446.95 2262)">(RFC)</text><rect x="2206" y="2010" width="683" height="323" fill="#D2EFFF" fill-opacity="1"/><text fill="#000000" fill-opacity="1" font-family="Arial,Arial_MSFontService,sans-serif" font-style="normal" font-variant="normal" font-weight="400" font-stretch="normal" font-size="64" text-anchor="start" direction="ltr" writing-mode="lr-tb" unicode-bidi="normal" text-decoration="none" transform="matrix(1 0 0 1 2372.81 2185)">HTTP Client</text><rect x="4137" y="2010" width="683" height="323" fill="#D2EFFF" fill-opacity="1"/><text fill="#000000" fill-opacity="1" font-family="Courier New,Courier New_MSFontService,sans-serif" font-style="normal" font-variant="normal" font-weight="400" font-stretch="normal" font-size="64" text-anchor="start" direction="ltr" writing-mode="lr-tb" unicode-bidi="normal" text-decoration="none" transform="matrix(1 0 0 1 4190.52 2141)">CALL FUNCTION … </text><text fill="#000000" fill-opacity="1" font-family="Courier New,Courier New_MSFontService,sans-serif" font-style="normal" font-variant="normal" font-weight="400" font-stretch="normal" font-size="64" text-anchor="start" direction="ltr" writing-mode="lr-tb" unicode-bidi="normal" text-decoration="none" transform="matrix(1 0 0 1 4267.29 2218)">DESTINATION</text><path d="M510.083 853.5 510.084 1247.91 500.917 1247.91 500.917 853.5ZM519.25 1243.33 505.501 1270.83 491.75 1243.33Z" fill="#000000" fill-rule="nonzero" fill-opacity="1"/><path d="M509.083 1593.5 509.084 1987.91 499.917 1987.91 499.917 1593.5ZM518.25 1983.33 504.5 2010.83 490.75 1983.33Z" fill="#000000" fill-rule="nonzero" fill-opacity="1"/><path d="M504.5 1029.92 1603.54 1029.92 1603.54 1247.84 1594.37 1247.84 1594.37 1034.5 1598.96 1039.08 504.5 1039.08ZM1612.71 1243.26 1598.96 1270.76 1585.21 1243.26Z" fill="#000000" fill-rule="nonzero" fill-opacity="1"/><path d="M1604.08 1593.5 1604.08 1987.91 1594.92 1987.91 1594.92 1593.5ZM1613.25 1983.33 1599.5 2010.83 1585.75 1983.33Z" fill="#000000" fill-rule="nonzero" fill-opacity="1"/><path d="M1599.5 1029.92 3539.52 1029.92 3539.52 1247.84 3530.36 1247.84 3530.36 1034.5 3534.94 1039.08 1599.5 1039.08ZM3548.69 1243.26 3534.94 1270.76 3521.19 1243.26Z" fill="#000000" fill-rule="nonzero" fill-opacity="1"/><path d="M3539.08 1593.5 3539.08 1987.91 3529.92 1987.91 3529.92 1593.5ZM3548.25 1983.33 3534.5 2010.83 3520.75 1983.33Z" fill="#000000" fill-rule="nonzero" fill-opacity="1"/><path d="M3534.5 1769.92 3571.17 1769.92 3571.17 1779.08 3534.5 1779.08ZM3598.67 1769.92 3635.33 1769.92 3635.33 1779.08 3598.67 1779.08ZM3662.83 1769.92 3699.5 1769.92 3699.5 1779.08 3662.83 1779.08ZM3727 1769.92 3763.67 1769.92 3763.67 1779.08 3727 1779.08ZM3791.17 1769.92 3827.83 1769.92 3827.83 1779.08 3791.17 1779.08ZM3855.33 1769.92 3892 1769.92 3892 1779.08 3855.33 1779.08ZM3919.5 1769.92 3956.17 1769.92 3956.17 1779.08 3919.5 1779.08ZM3983.67 1769.92 4020.33 1769.92 4020.33 1779.08 3983.67 1779.08ZM4047.83 1769.92 4084.5 1769.92 4084.5 1779.08 4047.83 1779.08ZM4112 1769.92 4148.67 1769.92 4148.67 1779.08 4112 1779.08ZM4176.17 1769.92 4212.83 1769.92 4212.83 1779.08 4176.17 1779.08ZM4240.33 1769.92 4277 1769.92 4277 1779.08 4240.33 1779.08ZM4304.5 1769.92 4341.17 1769.92 4341.17 1779.08 4304.5 1779.08ZM4368.67 1769.92 4405.33 1769.92 4405.33 1779.08 4368.67 1779.08ZM4432.83 1769.92 4469.5 1769.92 4469.5 1779.08 4432.83 1779.08ZM4483.47 1792.62 4483.47 1829.28 4474.3 1829.28 4474.3 1792.62ZM4483.47 1856.78 4483.47 1893.45 4474.3 1893.45 4474.3 1856.78ZM4483.47 1920.95 4483.47 1957.62 4474.3 1957.62 4474.3 1920.95ZM4483.47 1985.12 4483.47 1987.84 4474.3 1987.84 4474.3 1985.12ZM4492.63 1983.26 4478.88 2010.76 4465.13 1983.26Z" fill="#000000" fill-rule="nonzero" fill-opacity="1"/><text fill="#000000" fill-opacity="1" font-family="Arial,Arial_MSFontService,sans-serif" font-style="normal" font-variant="normal" font-weight="400" font-stretch="normal" font-size="83" text-anchor="start" direction="ltr" writing-mode="lr-tb" unicode-bidi="normal" text-decoration="none" transform="matrix(1 0 0 1 255.62 285)">ABAP System</text><rect x="2206" y="1270" width="683" height="323" fill="#89D1FF" fill-opacity="1"/><text fill="#000000" fill-opacity="1" font-family="Arial,Arial_MSFontService,sans-serif" font-style="normal" font-variant="normal" font-weight="400" font-stretch="normal" font-size="64" text-anchor="start" direction="ltr" writing-mode="lr-tb" unicode-bidi="normal" text-decoration="none" transform="matrix(1 0 0 1 2325.37 1406)">Communication </text><text fill="#000000" fill-opacity="1" font-family="Arial,Arial_MSFontService,sans-serif" font-style="normal" font-variant="normal" font-weight="400" font-stretch="normal" font-size="64" text-anchor="start" direction="ltr" writing-mode="lr-tb" unicode-bidi="normal" text-decoration="none" transform="matrix(1 0 0 1 2455.42 1483)">Target</text><path d="M4.58333-0.00429252 4.95271 394.405-4.21395 394.413-4.58333 0.00429252ZM14.1151 389.813 0.390846 417.326-13.3849 389.838Z" fill="#000000" fill-rule="nonzero" fill-opacity="1" transform="matrix(-1 0 0 1 2547.89 1593.5)"/><path d="M1940.5 1426.92 2183.65 1426.92 2183.65 1436.08 1940.5 1436.08ZM2179.07 1417.75 2206.57 1431.5 2179.07 1445.25Z" fill="#000000" fill-rule="nonzero" fill-opacity="1"/></g></g></svg>