<svg width="4015" height="1563" xmlns="http://www.w3.org/2000/svg" xmlns:xlink="http://www.w3.org/1999/xlink" xml:space="preserve" overflow="hidden"><g transform="translate(-320 -572)"><g><rect x="1244" y="886" width="490" height="311" fill="#89D1FF" fill-opacity="1"/><text fill="#000000" fill-opacity="1" font-family="Arial,Arial_MSFontService,sans-serif" font-style="normal" font-variant="normal" font-weight="400" font-stretch="normal" font-size="55" text-anchor="start" direction="ltr" writing-mode="lr-tb" unicode-bidi="normal" text-decoration="none" transform="matrix(1 0 0 1 1368.54 1018)">Outbound </text><text fill="#000000" fill-opacity="1" font-family="Arial,Arial_MSFontService,sans-serif" font-style="normal" font-variant="normal" font-weight="400" font-stretch="normal" font-size="55" text-anchor="start" direction="ltr" writing-mode="lr-tb" unicode-bidi="normal" text-decoration="none" transform="matrix(1 0 0 1 1397.48 1084)">Service</text><rect x="2084" y="886" width="489" height="311" fill="#89D1FF" fill-opacity="1"/><text fill="#000000" fill-opacity="1" font-family="Arial,Arial_MSFontService,sans-serif" font-style="normal" font-variant="normal" font-weight="400" font-stretch="normal" font-size="55" text-anchor="start" direction="ltr" writing-mode="lr-tb" unicode-bidi="normal" text-decoration="none" transform="matrix(1 0 0 1 2138.18 1018)">Communication </text><text fill="#000000" fill-opacity="1" font-family="Arial,Arial_MSFontService,sans-serif" font-style="normal" font-variant="normal" font-weight="400" font-stretch="normal" font-size="55" text-anchor="start" direction="ltr" writing-mode="lr-tb" unicode-bidi="normal" text-decoration="none" transform="matrix(1 0 0 1 2220.41 1084)">Scenario</text><rect x="2923" y="886" width="490" height="311" fill="#1B90FF" fill-opacity="1"/><text fill="#FFFFFF" fill-opacity="1" font-family="Arial,Arial_MSFontService,sans-serif" font-style="normal" font-variant="normal" font-weight="400" font-stretch="normal" font-size="55" text-anchor="start" direction="ltr" writing-mode="lr-tb" unicode-bidi="normal" text-decoration="none" transform="matrix(1 0 0 1 2977.72 1018)">Communication </text><text fill="#FFFFFF" fill-opacity="1" font-family="Arial,Arial_MSFontService,sans-serif" font-style="normal" font-variant="normal" font-weight="400" font-stretch="normal" font-size="55" text-anchor="start" direction="ltr" writing-mode="lr-tb" unicode-bidi="normal" text-decoration="none" transform="matrix(1 0 0 1 3009.53 1084)">Arrangement</text><rect x="2923" y="1466" width="490" height="310" fill="#1B90FF" fill-opacity="1"/><text fill="#FFFFFF" fill-opacity="1" font-family="Arial,Arial_MSFontService,sans-serif" font-style="normal" font-variant="normal" font-weight="400" font-stretch="normal" font-size="55" text-anchor="start" direction="ltr" writing-mode="lr-tb" unicode-bidi="normal" text-decoration="none" transform="matrix(1 0 0 1 2977.72 1598)">Communication </text><text fill="#FFFFFF" fill-opacity="1" font-family="Arial,Arial_MSFontService,sans-serif" font-style="normal" font-variant="normal" font-weight="400" font-stretch="normal" font-size="55" text-anchor="start" direction="ltr" writing-mode="lr-tb" unicode-bidi="normal" text-decoration="none" transform="matrix(1 0 0 1 3076.26 1664)">System</text><rect x="3763" y="886" width="489" height="311" fill="#89D1FF" fill-opacity="1"/><text fill="#000000" fill-opacity="1" font-family="BentonSans Regular,BentonSans Regular_MSFontService,sans-serif" font-style="normal" font-variant="normal" font-weight="400" font-stretch="normal" font-size="55" text-anchor="start" direction="ltr" writing-mode="lr-tb" unicode-bidi="normal" text-decoration="none" transform="matrix(1 0 0 1 3828.72 1017)">Service Call in </text><text fill="#000000" fill-opacity="1" font-family="BentonSans Regular,BentonSans Regular_MSFontService,sans-serif" font-style="normal" font-variant="normal" font-weight="400" font-stretch="normal" font-size="55" text-anchor="start" direction="ltr" writing-mode="lr-tb" unicode-bidi="normal" text-decoration="none" transform="matrix(1 0 0 1 3857.66 1083)">ABAP Class</text><path d="M1734.5 1046.92 2061.49 1046.92 2061.49 1056.08 1734.5 1056.08ZM2056.9 1037.75 2084.4 1051.5 2056.9 1065.25Z" fill="#000000" fill-rule="nonzero" fill-opacity="1"/><path d="M2573.5 1037.92 2610.17 1037.92 2610.17 1047.08 2573.5 1047.08ZM2637.67 1037.92 2674.33 1037.92 2674.33 1047.08 2637.67 1047.08ZM2701.83 1037.92 2738.5 1037.92 2738.5 1047.08 2701.83 1047.08ZM2766 1037.92 2802.67 1037.92 2802.67 1047.08 2766 1047.08ZM2830.17 1037.92 2866.83 1037.92 2866.83 1047.08 2830.17 1047.08ZM2894.33 1037.92 2900.49 1037.92 2900.49 1047.08 2894.33 1047.08ZM2895.9 1028.75 2923.4 1042.5 2895.9 1056.25Z" fill="#000000" fill-rule="nonzero" fill-opacity="1"/><path d="M4.58333-6.14731e-06 4.58366 246.159-4.583 246.159-4.58333 6.14731e-06ZM13.7503 241.575 0.000360892 269.075-13.7497 241.575Z" fill="#000000" fill-rule="nonzero" fill-opacity="1" transform="matrix(1 0 0 -1 3168.5 1466.58)"/><rect x="323" y="1864" width="2395" height="54" fill="#89D1FF" fill-opacity="1"/><rect x="2811" y="1864" width="713" height="54" fill="#1B90FF" fill-opacity="1"/><rect x="3638" y="1864" width="696" height="54" fill="#89D1FF" fill-opacity="1"/><text fill="#000000" fill-opacity="1" font-family="Arial,Arial_MSFontService,sans-serif" font-style="normal" font-variant="normal" font-weight="400" font-stretch="normal" font-size="64" text-anchor="start" direction="ltr" writing-mode="lr-tb" unicode-bidi="normal" text-decoration="none" transform="matrix(1 0 0 1 1147.85 2003)">Developer Tasks in ADT</text><text fill="#000000" fill-opacity="1" font-family="Arial,Arial_MSFontService,sans-serif" font-style="normal" font-variant="normal" font-weight="400" font-stretch="normal" font-size="64" text-anchor="start" direction="ltr" writing-mode="lr-tb" unicode-bidi="normal" text-decoration="none" transform="matrix(1 0 0 1 2827.92 2003)">Administrator Tasks in </text><text fill="#000000" fill-opacity="1" font-family="Arial,Arial_MSFontService,sans-serif" font-style="normal" font-variant="normal" font-weight="400" font-stretch="normal" font-size="64" text-anchor="start" direction="ltr" writing-mode="lr-tb" unicode-bidi="normal" text-decoration="none" transform="matrix(1 0 0 1 2838.4 2080)">SAP Fiori Launchpad</text><rect x="404" y="886" width="490" height="311" fill="#89D1FF" fill-opacity="1"/><text fill="#000000" fill-opacity="1" font-family="Arial,Arial_MSFontService,sans-serif" font-style="normal" font-variant="normal" font-weight="400" font-stretch="normal" font-size="55" text-anchor="start" direction="ltr" writing-mode="lr-tb" unicode-bidi="normal" text-decoration="none" transform="matrix(1 0 0 1 459.106 1018)">Communication </text><text fill="#000000" fill-opacity="1" font-family="Arial,Arial_MSFontService,sans-serif" font-style="normal" font-variant="normal" font-weight="400" font-stretch="normal" font-size="55" text-anchor="start" direction="ltr" writing-mode="lr-tb" unicode-bidi="normal" text-decoration="none" transform="matrix(1 0 0 1 569.977 1084)">Target</text><path d="M894.5 1037.92 1221.49 1037.92 1221.49 1047.08 894.5 1047.08ZM1216.9 1028.75 1244.4 1042.5 1216.9 1056.25Z" fill="#000000" fill-rule="nonzero" fill-opacity="1"/><text fill="#000000" fill-opacity="1" font-family="Arial,Arial_MSFontService,sans-serif" font-style="normal" font-variant="normal" font-weight="400" font-stretch="normal" font-size="50" text-anchor="start" direction="ltr" writing-mode="lr-tb" unicode-bidi="normal" text-decoration="none" transform="matrix(1 0 0 1 2910.99 640)">Application Destination</text><text fill="#000000" fill-opacity="1" font-family="Arial,Arial_MSFontService,sans-serif" font-style="normal" font-variant="normal" font-weight="400" font-stretch="normal" font-size="50" text-anchor="start" direction="ltr" writing-mode="lr-tb" unicode-bidi="normal" text-decoration="none" transform="matrix(1 0 0 1 2780.06 701)">(</text><text fill="#000000" fill-opacity="1" font-family="Arial,Arial_MSFontService,sans-serif" font-style="normal" font-variant="normal" font-weight="400" font-stretch="normal" font-size="50" text-anchor="start" direction="ltr" writing-mode="lr-tb" unicode-bidi="normal" text-decoration="none" transform="matrix(1 0 0 1 2796.68 701)">B</text><text fill="#000000" fill-opacity="1" font-family="Arial,Arial_MSFontService,sans-serif" font-style="normal" font-variant="normal" font-weight="400" font-stretch="normal" font-size="50" text-anchor="start" direction="ltr" writing-mode="lr-tb" unicode-bidi="normal" text-decoration="none" transform="matrix(1 0 0 1 2830.48 701)">ased on Communication System </text><text fill="#000000" fill-opacity="1" font-family="Arial,Arial_MSFontService,sans-serif" font-style="normal" font-variant="normal" font-weight="400" font-stretch="normal" font-size="50" text-anchor="start" direction="ltr" writing-mode="lr-tb" unicode-bidi="normal" text-decoration="none" transform="matrix(1 0 0 1 3082.29 761)">Details</text><text fill="#000000" fill-opacity="1" font-family="Arial,Arial_MSFontService,sans-serif" font-style="normal" font-variant="normal" font-weight="400" font-stretch="normal" font-size="50" text-anchor="start" direction="ltr" writing-mode="lr-tb" unicode-bidi="normal" text-decoration="none" transform="matrix(1 0 0 1 3236.98 761)">)</text><path d="M3592.5 677.917 4012.4 677.917 4012.4 863.449 4003.23 863.449 4003.23 682.5 4007.82 687.083 3592.5 687.083ZM4021.57 858.866 4007.82 886.366 3994.07 858.866Z" fill="#000000" fill-rule="nonzero" fill-opacity="1"/><path d="M3163.92 887.069 3163.92 850.402 3173.08 850.402 3173.08 887.069ZM3163.92 822.902 3163.92 814.417 3173.08 814.417 3173.08 822.902ZM3154.75 819 3168.5 791.5 3182.25 819Z" fill="#000000" fill-rule="nonzero" fill-opacity="1"/></g></g></svg>